<?xml version="1.0" encoding="utf-8"?>
<!-- Generator: Adobe Illustrator 16.0.0, SVG Export Plug-In . SVG Version: 6.00 Build 0)  -->
<!DOCTYPE svg PUBLIC "-//W3C//DTD SVG 1.1//EN" "http://www.w3.org/Graphics/SVG/1.1/DTD/svg11.dtd">
<svg version="1.1" id="Layer_1" xmlns="http://www.w3.org/2000/svg" xmlns:xlink="http://www.w3.org/1999/xlink" x="0px" y="0px"
	 width="30px" height="30px" viewBox="-119.5 50.5 30 30" enable-background="new -119.5 50.5 30 30" xml:space="preserve">
<path fill="#444444" d="M-104.5,50.501c-8.284,0-15.002,6.716-15.002,15.003c0,8.283,6.719,14.997,15.002,14.997
	c8.287,0,15.002-6.714,15.002-14.997C-89.498,57.215-96.215,50.501-104.5,50.501L-104.5,50.501z M-98.447,68.112h-3.46v3.449
	c0,1.442-1.152,2.607-2.592,2.607c-1.441,0-2.591-1.167-2.591-2.607v-3.449h-3.461c-1.44,0-2.613-1.169-2.613-2.612
	c0-1.437,1.173-2.607,2.613-2.607h3.461v-3.453c0-1.441,1.154-2.609,2.591-2.609c1.442,0,2.594,1.168,2.594,2.609v3.453h3.46
	c1.441,0,2.609,1.169,2.609,2.611C-95.835,66.943-97.004,68.112-98.447,68.112L-98.447,68.112z"/>
</svg>
