<?xml version="1.0" encoding="utf-8"?>
<!-- Generator: Adobe Illustrator 16.0.0, SVG Export Plug-In . SVG Version: 6.00 Build 0)  -->
<!DOCTYPE svg PUBLIC "-//W3C//DTD SVG 1.1//EN" "http://www.w3.org/Graphics/SVG/1.1/DTD/svg11.dtd">
<svg version="1.1" id="Layer_1" xmlns="http://www.w3.org/2000/svg" xmlns:xlink="http://www.w3.org/1999/xlink" x="0px" y="0px"
	 width="30px" height="30px" viewBox="-83.5 50.5 30 30" enable-background="new -83.5 50.5 30 30" xml:space="preserve">
<path fill="#88C540" d="M-68.5,50.5c-8.284,0-15.002,6.716-15.002,15.001S-76.785,80.5-68.5,80.5
	c8.287,0,15.003-6.714,15.003-14.999C-53.497,57.214-60.214,50.5-68.5,50.5L-68.5,50.5z M-62.448,68.111h-3.459v3.448
	c0,1.442-1.151,2.608-2.593,2.608c-1.44,0-2.591-1.168-2.591-2.608v-3.448h-3.461c-1.441,0-2.613-1.17-2.613-2.612
	c0-1.437,1.172-2.607,2.613-2.607h3.461v-3.453c0-1.441,1.154-2.61,2.592-2.61c1.443,0,2.594,1.168,2.594,2.61v3.453h3.459
	c1.44,0,2.61,1.168,2.61,2.609C-59.835,66.941-61.005,68.111-62.448,68.111L-62.448,68.111z"/>
</svg>
