<?xml version="1.0" encoding="utf-8"?>
<!-- Generator: Adobe Illustrator 16.0.0, SVG Export Plug-In . SVG Version: 6.00 Build 0)  -->
<!DOCTYPE svg PUBLIC "-//W3C//DTD SVG 1.1//EN" "http://www.w3.org/Graphics/SVG/1.1/DTD/svg11.dtd">
<svg version="1.1" id="Layer_1" xmlns="http://www.w3.org/2000/svg" xmlns:xlink="http://www.w3.org/1999/xlink" x="0px" y="0px"
	 width="30px" height="30px" viewBox="-9.5 50.5 30 30" enable-background="new -9.5 50.5 30 30" xml:space="preserve">
<path fill="#444444" d="M5.5,80.5c-8.275,0-15.007-6.729-15.007-15S-2.775,50.501,5.5,50.501c8.276,0,15.008,6.728,15.008,14.999
	C20.508,73.771,13.776,80.5,5.5,80.5L5.5,80.5z M5.5,55.257c-5.65,0-10.245,4.596-10.245,10.243c0,5.646,4.594,10.241,10.245,10.241
	S15.744,71.147,15.744,65.5S11.15,55.257,5.5,55.257L5.5,55.257z M5.5,73.709c-4.536,0-8.21-3.677-8.21-8.209
	c0-4.534,3.675-8.207,8.21-8.207c4.536,0,8.21,3.673,8.21,8.207C13.71,70.032,10.036,73.709,5.5,73.709L5.5,73.709z"/>
</svg>
