<?xml version="1.0" encoding="utf-8"?>
<!-- Generator: Adobe Illustrator 16.0.0, SVG Export Plug-In . SVG Version: 6.00 Build 0)  -->
<!DOCTYPE svg PUBLIC "-//W3C//DTD SVG 1.1//EN" "http://www.w3.org/Graphics/SVG/1.1/DTD/svg11.dtd">
<svg version="1.1" id="Layer_1" xmlns="http://www.w3.org/2000/svg" xmlns:xlink="http://www.w3.org/1999/xlink" x="0px" y="0px"
	 width="35px" height="35px" viewBox="-119.5 -6.002 35 35" enable-background="new -119.5 -6.002 35 35" xml:space="preserve">
<path fill="#88C540" d="M-63-5.667c-9.48,0-17.168,7.686-17.168,17.167c0,9.48,7.688,17.164,17.168,17.164
	c9.483,0,17.169-7.684,17.169-17.164C-45.831,2.017-53.518-5.667-63-5.667L-63-5.667z M-56.073,14.486h-3.959v3.948
	c0,1.65-1.318,2.983-2.968,2.983c-1.648,0-2.965-1.336-2.965-2.983v-3.948h-3.961c-1.648,0-2.99-1.338-2.99-2.989
	c0-1.644,1.342-2.983,2.99-2.983h3.961V4.562c0-1.648,1.321-2.986,2.966-2.986c1.651,0,2.969,1.336,2.969,2.986v3.952h3.959
	c1.648,0,2.986,1.336,2.986,2.986C-53.084,13.148-54.423,14.486-56.073,14.486L-56.073,14.486z"/>
<path fill="#444444" d="M-25,28.998c-9.642,0-17.487-7.846-17.487-17.497c0-9.653,7.844-17.503,17.487-17.503
	S-7.513,1.85-7.513,11.501C-7.513,21.152-15.356,28.998-25,28.998L-25,28.998z M-25-0.451c-6.582,0-11.939,5.36-11.939,11.952
	c0,6.584,5.357,11.948,11.939,11.948c6.585,0,11.942-5.358,11.942-11.948C-13.058,4.909-18.415-0.451-25-0.451L-25-0.451z"/>
<path fill="#444444" d="M11.334,28.665c-9.471,0-17.176-7.7-17.176-17.167S1.863-5.669,11.334-5.669
	c9.472,0,17.176,7.7,17.176,17.167C28.51,20.962,20.806,28.665,11.334,28.665L11.334,28.665z M11.334-0.224
	c-6.467,0-11.725,5.258-11.725,11.722c0,6.461,5.258,11.721,11.725,11.721s11.725-5.257,11.725-11.721S17.801-0.224,11.334-0.224
	L11.334-0.224z M11.334,20.892c-5.191,0-9.397-4.207-9.397-9.394c0-5.19,4.206-9.393,9.397-9.393s9.396,4.203,9.396,9.393
	C20.73,16.685,16.525,20.892,11.334,20.892L11.334,20.892z"/>
<path fill="#444444" d="M-102-5.999c-9.663,0-17.5,7.834-17.5,17.5c0,9.662,7.837,17.494,17.5,17.494
	c9.667,0,17.5-7.832,17.5-17.494C-84.5,1.833-92.336-5.999-102-5.999L-102-5.999z M-94.939,14.545h-4.036v4.023
	c0,1.683-1.344,3.041-3.024,3.041c-1.68,0-3.022-1.361-3.022-3.041v-4.023h-4.038c-1.68,0-3.048-1.364-3.048-3.047
	c0-1.676,1.368-3.042,3.048-3.042h4.038V4.427c0-1.679,1.346-3.043,3.023-3.043c1.682,0,3.026,1.363,3.026,3.043v4.029h4.036
	c1.681,0,3.043,1.363,3.043,3.045C-91.893,13.181-93.257,14.545-94.939,14.545L-94.939,14.545z"/>
</svg>
